<svg width="100" height="100" viewBox="0 0 100 100" fill="none" xmlns="http://www.w3.org/2000/svg">
<path d="M99.95 26.275C99.5083 36 92.7125 49.3188 79.5625 66.2313C65.9667 83.9104 54.4625 92.75 45.05 92.75C39.2167 92.75 34.2854 87.3688 30.2563 76.6063L22.1875 47.0188C19.1875 36.2521 15.9729 30.8708 12.5437 30.875C11.8021 30.8792 9.18958 32.45 4.70625 35.5875L0 29.525C4.89471 25.2259 9.75735 20.8903 14.5875 16.5188C21.175 10.8354 26.1187 7.84168 29.4187 7.53751C37.1896 6.76668 41.9771 12.0854 43.7813 23.4938C45.7229 35.7938 47.0688 43.4313 47.8188 46.4063C50.0688 56.6021 52.5396 61.6958 55.2312 61.6875C57.3146 61.6875 60.4563 58.3813 64.6563 51.7688C68.8479 45.1563 71.0917 40.125 71.3875 36.675C71.9875 30.9667 69.7438 28.1125 64.6563 28.1125C62.1022 28.1461 59.5819 28.7012 57.25 29.7438C62.1792 13.6604 71.5708 5.83543 85.425 6.26876C95.7 6.58126 100.542 13.2542 99.95 26.275Z" fill="black"/>
</svg>
